PathFileType	4	(X/Y/Z)	c:/Users/goper/Files/vsCode/490R/osim_files/C05/C05_ROM.trc
DataRate	CameraRate	NumFrames	NumMarkers	Units                	OrigDataRate	OrigDataStartFrame	OrigNumFrames
250.00	250.00	4	36	mm	250.0	2916	3332
                Frame#	Time	LPSIS			LASIS			LTH1			LTH2			LTH3			LTH4			LLFE			LMFE			LSH1			LSH2			LSH3			LSH4			LLMAL			LMMAL			LCAL			LMTP5			LTOE			LMTP1			RPSIS			RASIS			RTH1			RTH2			RTH3			RTH4			RLFE			RMFE			RSH1			RSH2			RSH3			RSH4			RLMAL			RMMAL			RCAL			RMTP1			RTOE			RMTP5		
		X1	Y1	Z1	X2	Y2	Z2	X3	Y3	Z3	X4	Y4	Z4	X5	Y5	Z5	X6	Y6	Z6	X7	Y7	Z7	X8	Y8	Z8	X9	Y9	Z9	X10	Y10	Z10	X11	Y11	Z11	X12	Y12	Z12	X13	Y13	Z13	X14	Y14	Z14	X15	Y15	Z15	X16	Y16	Z16	X17	Y17	Z17	X18	Y18	Z18	X19	Y19	Z19	X20	Y20	Z20	X21	Y21	Z21	X22	Y22	Z22	X23	Y23	Z23	X24	Y24	Z24	X25	Y25	Z25	X26	Y26	Z26	X27	Y27	Z27	X28	Y28	Z28	X29	Y29	Z29	X30	Y30	Z30	X31	Y31	Z31	X32	Y32	Z32	X33	Y33	Z33	X34	Y34	Z34	X35	Y35	Z35	X36	Y36	Z36

2916	11.66000	-584.18481	973.36792	397.45303	0.00000	0.00000	0.00000	-378.85010	632.54321	276.90927	-335.03973	587.40234	277.59659	-319.57785	680.29681	265.21664	-283.66611	629.90417	267.88840	-234.16594	525.75177	278.47504	-217.35187	515.95337	399.06180	-329.24313	369.97244	268.30759	-330.24203	329.21112	262.49301	-268.00214	355.94968	253.39557	-282.92944	315.15433	256.64124	-362.02267	93.53345	278.00064	-328.25586	109.44072	360.02884	-417.76648	66.73104	332.86462	-226.11060	46.73698	240.94249	-189.43774	81.90794	295.55423	-196.90407	61.67754	345.36594	-578.64874	979.71613	506.81277	-399.39648	908.46783	573.10382	-386.81494	629.76489	657.83710	-344.93353	582.53424	657.84808	-327.12878	672.63416	675.13147	-294.49033	619.74634	674.85077	-234.09219	520.31519	664.94263	-219.14917	497.52151	548.79779	-325.12970	383.27997	674.41235	-331.70813	335.52158	673.56000	-266.66754	366.28110	679.63556	-281.21915	321.83054	676.83160	-364.86356	95.12207	648.27539	-340.22803	109.45987	566.76917	-428.60345	67.32552	597.50427	-214.42679	52.59069	572.44232	-195.65347	77.15377	620.76367	-241.36237	36.34938	681.42456
2917	11.66400	-583.12299	975.64209	397.53372	0.00000	0.00000	0.00000	-379.01141	634.04163	277.00336	-335.45499	588.60406	277.69382	-319.33911	681.38947	265.29663	-283.82968	630.75842	268.00250	-234.91273	526.30377	278.64001	-218.40295	516.28949	399.06100	-330.12961	370.17682	268.33124	-331.05557	329.43533	262.52768	-268.76044	356.30557	253.37750	-283.68198	315.40689	256.62659	-362.04657	93.54285	277.99631	-328.29297	109.44342	359.99561	-417.75546	66.72990	332.85339	-226.11565	46.68961	240.93805	-189.42319	81.81014	295.56967	-196.90225	61.55875	345.37238	-577.63837	981.99078	506.86807	-398.00925	911.52441	572.92072	-387.02414	631.23822	657.78418	-345.08710	583.90540	657.47906	-327.01620	673.64276	674.98596	-294.60977	620.61133	674.67346	-234.99014	520.76538	664.69672	-220.19325	497.82828	548.65656	-326.12186	383.45770	674.24084	-332.52319	335.67749	673.44867	-267.56317	366.63477	679.45514	-281.99274	322.10187	676.73871	-364.93951	95.11621	648.30518	-340.34326	109.49875	566.81085	-428.59537	67.32799	597.52289	-214.41217	52.58279	572.44025	-196.14557	76.83678	621.13721	-241.41490	36.30859	681.43628
2918	11.66800	-582.09949	977.86322	397.63437	0.00000	0.00000	0.00000	-379.08484	635.42944	277.02716	-335.80591	589.69257	277.77307	-319.09430	682.44568	265.38303	-283.94107	631.57300	268.10849	-235.75708	526.86407	278.72699	-219.32756	516.66486	399.02893	-331.00067	370.33182	268.48019	-331.73734	329.61371	262.56879	-269.64392	356.60837	253.38403	-284.35367	315.72922	256.61102	-362.02454	93.56683	277.98541	-328.25449	109.41959	359.96927	-418.06320	66.75888	332.69901	-226.07040	46.61530	240.95715	-189.35211	81.66230	295.60922	-196.82521	61.39611	345.41800	-576.46735	984.18018	506.88434	-396.63937	914.51074	572.93152	-387.03024	632.64105	657.73737	-345.74774	584.84937	657.54034	-326.83191	674.65045	674.87549	-294.70526	621.38464	674.51440	-235.86720	521.22827	664.40680	-221.18187	498.21017	548.50385	-326.96246	383.65167	674.12885	-333.24695	335.87146	673.32251	-268.34988	366.99008	679.37848	-282.77493	322.33148	676.60516	-364.92920	95.10796	648.29956	-340.41440	109.52089	566.83282	-428.57843	67.32023	597.52667	-214.38097	52.51874	572.40961	-195.63760	77.03564	620.72913	-241.41321	36.24206	681.41400
2919	11.67200	-580.98761	980.05536	397.62430	0.00000	0.00000	0.00000	-379.11050	636.92456	277.07050	-336.17517	590.89526	277.87906	-318.82205	683.47974	265.46225	-283.98355	632.40796	268.23395	-236.47136	527.41321	278.81046	-220.23177	516.98358	399.04172	-331.81589	370.44235	268.55905	-332.27466	329.80005	262.59314	-270.38931	356.94238	253.42612	-285.26184	315.77344	256.72888	-362.01703	93.58939	277.99680	-328.22894	109.36318	359.96417	-418.05481	66.84317	332.71252	-225.99434	46.50903	240.99240	-189.26282	81.44676	295.67639	-196.77370	61.17407	345.44528	-575.26575	986.34552	506.85501	-395.46866	917.08331	572.91418	-387.02789	633.96454	657.72583	-345.85294	586.13660	657.18561	-326.52808	675.68262	674.78754	-294.81647	622.17084	674.37775	-236.65384	521.61230	664.17371	-222.10811	498.61127	548.36273	-327.74081	383.81332	674.00604	-333.97394	336.05377	673.23956	-269.22064	367.28937	679.29114	-283.50919	322.56836	676.52606	-364.89398	95.11044	648.34729	-340.43491	109.50534	566.85138	-428.54480	67.32159	597.52789	-214.31772	52.35856	572.39563	-196.01968	76.60635	621.06934	-241.34413	36.13402	681.42871
